:SAMPLES-PER-SECOND 30
:FULLY-SPECIFIED
:DEGREES
289
root  68.5866 39.156 -33.5371 3.83717 1.44603 3.3269
RightUpLeg  -24.5311 -12.2105 -3.40163
RightLeg  12.1942 -10.5172 2.43426
RightFoot  6.74356 0.813441 -4.845
RightToes  0.00048216 0.542163 -0.142577
Spine  34.9916 -2.6206 4.32803
Spine1  12.4608 -0.3794 -4.02458
HEad  0.97562 -1.73829 -3.3602
LeftShoulder1  11.367 -17.4816 -47.2643
LeftArm  -8.9225 -12.2024 -21.8125
LeftForeArm  25.9446 -10.1733 -6.7852
LeftHand  -0.25398 0.0180481 5.50724
RightShoulder  6.0573 11.3379 34.8528
RightArm  -2.42093 18.1024 35.6469
RightForeArm  1.95187 12.1579 7.93774
RightHand  -1.80759 5.6892 -19.1581
LeftUpLeg  -10.5555 14.4944 -4.64983
LeftLeg  23.8997 5.53439 3.21512
LeftFoot  -13.4914 0.0509108 -1.66268
LeftToes  1.06244e-005 4.65854e-005 -8.18505e-006
290
root  68.3846 38.836 -33.3981 5.62202 2.05649 2.53679
RightUpLeg  -28.5869 -15.7751 -0.277032
RightLeg  15.7468 -7.60675 1.77848
RightFoot  6.09017 1.0277 -6.4224
RightToes  0.00048216 0.542163 -0.142577
Spine  37.7682 -3.16164 6.6129
Spine1  13.4566 0.0718127 -4.49935
HEad  -3.58058 -3.02995 -2.85076
LeftShoulder1  11.1201 -17.8845 -45.2983
LeftArm  -10.2804 -17.2522 -22.9871
LeftForeArm  26.1469 -10.7587 -6.47014
LeftHand  -0.25398 0.0180481 5.50724
RightShoulder  6.02112 12.0045 32.883
RightArm  -4.11165 21.9618 35.6927
RightForeArm  3.38265 10.4655 8.19907
RightHand  -1.88352 6.08425 -19.2793
LeftUpLeg  -17.9451 14.4186 -3.98548
LeftLeg  33.9842 6.05188 4.72946
LeftFoot  -11.3194 0.0727589 -3.20515
LeftToes  1.06244e-005 4.65854e-005 -8.18505e-006
291
root  68.1235 38.5543 -33.2997 6.83096 2.36189 1.85045
RightUpLeg  -32.1771 -19.6917 3.63226
RightLeg  18.8401 -3.55535 1.07061
RightFoot  4.7415 1.05479 -7.22209
RightToes  0.00048216 0.542163 -0.142577
Spine  41.6189 -3.42594 7.48959
Spine1  13.9299 0.263348 -4.28508
HEad  -8.27644 -3.89906 -2.12242
LeftShoulder1  10.622 -18.1885 -42.5274
LeftArm  -11.848 -22.2199 -24.2176
LeftForeArm  25.9502 -11.4589 -6.07476
LeftHand  -0.25398 0.0180481 5.50724
RightShoulder  5.90508 12.7691 30.3148
RightArm  -6.43752 27.1525 36.17
RightForeArm  7.37266 7.49258 8.14493
RightHand  -1.75455 5.821 -18.3998
LeftUpLeg  -25.0879 16.0095 -3.48131
LeftLeg  43.217 5.75685 6.15226
LeftFoot  -7.17759 0.190837 -4.17304
LeftToes  1.06244e-005 4.65854e-005 -8.18505e-006
292
root  67.8569 38.3383 -33.2264 7.50507 2.88132 1.4655
RightUpLeg  -34.808 -22.608 6.72699
RightLeg  21.2725 -0.788398 0.551285
RightFoot  3.74083 1.1109 -8.17584
RightToes  0.00048216 0.542163 -0.142577
Spine  45.7071 -3.2834 7.79237
Spine1  14.9535 0.403468 -3.01088
HEad  -13.1914 -5.28989 -1.44175
LeftShoulder1  10.6203 -19.2028 -40.4592
LeftArm  -14.248 -28.1684 -24.3946
LeftForeArm  25.753 -11.0476 -5.86588
LeftHand  -0.25398 0.0180481 5.50724
RightShoulder  5.56658 13.0195 27.6468
RightArm  -8.52869 33.5921 35.6082
RightForeArm  10.0031 4.18516 7.59513
RightHand  -1.56968 5.19517 -17.4646
LeftUpLeg  -30.7611 17.4883 -3.65088
LeftLeg  48.5889 5.26796 6.78941
LeftFoot  -4.39201 0.245584 -3.60952
LeftToes  1.06244e-005 4.65854e-005 -8.18505e-006
293
root  67.62 38.2375 -33.1236 8.66486 3.7435 1.54713
RightUpLeg  -37.1476 -24.1322 8.55235
RightLeg  22.662 0.164017 0.113807
RightFoot  3.26253 1.1787 -8.9959
RightToes  0.00048216 0.542163 -0.142577
Spine  49.1532 -3.12862 8.12533
Spine1  16.7941 0.613741 -1.62845
HEad  -18.435 -6.97895 -0.930241
LeftShoulder1  10.9617 -20.8363 -38.7803
LeftArm  -17.5222 -35.2329 -23.7375
LeftForeArm  25.5148 -9.578 -5.68469
LeftHand  -0.25398 0.0180481 5.50724
RightShoulder  5.08993 12.7628 25.1641
RightArm  -11.7132 40.6484 33.2891
RightForeArm  9.97719 1.11705 6.93408
RightHand  -1.51855 4.92174 -17.3355
LeftUpLeg  -35.2815 18.3519 -4.98758
LeftLeg  48.5631 4.83132 6.27663
LeftFoot  -4.68799 0.165926 -2.34993
LeftToes  1.06244e-005 4.65854e-005 -8.18505e-006
294
root  67.4077 38.2263 -32.9541 10.9664 4.93088 2.06656
RightUpLeg  -39.9509 -24.2611 9.40604
RightLeg  23.2906 -0.383228 -0.433981
RightFoot  2.94149 1.18114 -9.23718
RightToes  0.00048216 0.542163 -0.142577
Spine  52.4357 -3.48743 8.32721
Spine1  17.5894 0.547499 -0.924782
HEad  -23.1858 -8.01391 -0.455796
LeftShoulder1  11.0226 -22.1874 -36.7005
LeftArm  -20.8875 -42.086 -22.3835
LeftForeArm  24.9895 -8.14675 -5.28607
LeftHand  -0.25398 0.0180481 5.50724
RightShoulder  4.68691 12.6048 22.8604
RightArm  -16.0043 47.0441 29.8117
RightForeArm  7.9169 -1.19804 6.28478
RightHand  -1.58509 5.17949 -17.6506
LeftUpLeg  -39.2628 18.5281 -7.30444
LeftLeg  43.5517 4.21245 4.70027
LeftFoot  -6.11341 0.155723 -2.64887
LeftToes  1.06244e-005 4.65854e-005 -8.18505e-006
295
root  67.2295 38.1907 -32.7187 14.0294 6.20233 2.63097
RightUpLeg  -43.3917 -23.8648 10.0805
RightLeg  24.0909 -1.464 -0.945334
RightFoot  2.45392 1.15203 -9.35615
RightToes  0.00048216 0.542163 -0.142577
Spine  55.194 -4.09446 8.65174
Spine1  17.4254 0.344546 -0.529214
HEad  -27.2113 -8.69141 0.10165
LeftShoulder1  10.9509 -23.4137 -34.4986
LeftArm  -24.8035 -48.3997 -19.7725
LeftForeArm  24.7387 -6.78303 -4.66231
LeftHand  -0.25398 0.0180481 5.50724
RightShoulder  4.38212 12.7787 20.5366
RightArm  -21.2665 52.2109 25.1374
RightForeArm  5.02513 -2.4391 5.67214
RightHand  -1.62533 5.46041 -17.6381
LeftUpLeg  -42.7445 18.3608 -9.94816
LeftLeg  35.7947 2.84491 2.58505
LeftFoot  -5.88936 0.266356 -4.72531
LeftToes  1.06244e-005 4.65854e-005 -8.18505e-006
